<svg width="22" height="20" viewBox="0 0 22 20" fill="none" xmlns="http://www.w3.org/2000/svg">
<path d="M5.93608 1.33487C8.20552 1.33487 10.4707 2.85663 10.953 4.62738C11.3087 2.94138 13.6277 1.35175 15.9635 1.35175C17.7806 1.35175 19.6076 2.31325 20.5291 4.93937C22.7944 11.3965 11.7424 17.5968 10.9526 18.364C10.1629 17.3984 -0.888424 11.5075 1.37821 4.94312C2.285 2.317 4.11194 1.3345 5.93608 1.33487ZM5.93608 0.625H5.93537C3.54045 0.625 1.65411 2.10887 0.760675 4.69562C-1.27364 10.5869 6.11287 15.7502 9.26626 17.9541C9.77413 18.3092 10.3495 18.7116 10.4627 18.8369L10.9034 19.375L11.3941 18.8905C11.4756 18.814 11.8527 18.5564 12.2176 18.3074C15.2416 16.2419 23.2741 10.7545 21.1453 4.68812C20.2434 2.11637 18.3546 0.6415 15.9639 0.6415C13.945 0.6415 11.948 1.67762 10.9336 3.09925C9.88555 1.65625 7.9138 0.625375 5.93608 0.625Z" fill="black"/>
</svg>
