<svg width="22" height="20" viewBox="0 0 22 20" fill="none" xmlns="http://www.w3.org/2000/svg">
<path d="M5.9362 1.33487C8.20564 1.33487 10.4709 2.85663 10.9531 4.62738C11.3088 2.94138 13.6278 1.35175 15.9636 1.35175C17.7807 1.35175 19.6077 2.31325 20.5292 4.93937C22.7945 11.3965 11.7425 17.5968 10.9527 18.364C10.163 17.3984 -0.888302 11.5075 1.37833 4.94312C2.28512 2.317 4.11207 1.3345 5.9362 1.33487ZM5.9362 0.625H5.93549C3.54058 0.625 1.65423 2.10887 0.760797 4.69562C-1.27351 10.5869 6.11299 15.7502 9.26638 17.9541C9.77425 18.3092 10.3496 18.7116 10.4628 18.8369L10.9035 19.375L11.3942 18.8905C11.4757 18.814 11.8529 18.5564 12.2177 18.3074C15.2417 16.2419 23.2742 10.7545 21.1454 4.68812C20.2435 2.11637 18.3547 0.6415 15.964 0.6415C13.9452 0.6415 11.9481 1.67762 10.9338 3.09925C9.88567 1.65625 7.91392 0.625375 5.9362 0.625V0.625Z" fill="black"/>
</svg>
